<svg xmlns:mydata="http://www.w3.org/2000/svg" mydata:contrastcolor="ffffff" mydata:template="Contrast" mydata:presentation="2.5" mydata:layouttype="undefined" mydata:specialfontid="undefined" mydata:id1="610" mydata:id2="372" mydata:companyname="Burgery" mydata:companytagline="" version="1.1" xmlns="http://www.w3.org/2000/svg" xmlns:xlink="http://www.w3.org/1999/xlink" viewBox="125 130 300 220" width="200" height="100"><g fill="#da7741" fill-rule="none" stroke="none" stroke-width="1" stroke-linecap="butt" stroke-linejoin="miter" stroke-miterlimit="10" stroke-dasharray="" stroke-dashoffset="0" font-family="none" font-weight="none" font-size="none" text-anchor="none" style="mix-blend-mode: normal"><g data-paper-data="{&quot;isGlobalGroup&quot;:true,&quot;bounds&quot;:{&quot;x&quot;:64.99999999999999,&quot;y&quot;:197.44684999048556,&quot;width&quot;:420,&quot;height&quot;:75.10630001902891}}"><g data-paper-data="{&quot;isPrimaryText&quot;:true}"><path d="M215.59408,245.01298c-0.5534,-3.00449 -2.16863,-5.31017 -4.46489,-7.06872c-0.64337,-0.49377 -1.25013,-1.04299 -1.88409,-1.55246c-0.62036,-0.49691 -0.59211,-0.78983 0.08997,-1.29616c1.53049,-1.12355 2.33183,-2.26069 3.30264,-3.47839c1.94476,-2.44167 2.68752,-5.56647 2.48561,-8.79693c-0.19877,-3.2043 -0.78355,-6.34584 -1.77633,-9.40787c-1.07752,-3.31833 -2.82874,-6.21194 -5.14802,-8.4925c-2.517,-2.47306 -5.83533,-3.64368 -9.15889,-4.17407c-3.81525,-0.6099 -7.075,-0.97604 -11.57232,-0.65488c-3.24406,0.25316 -5.77151,0.32012 -8.64524,0.6758c-1.2449,0.15378 -3.58824,0.3787 -4.7348,0.93943c-1.64243,0.80448 -1.55665,1.94581 -1.78575,4.1385c-0.37033,3.5558 -0.42891,7.12416 -0.55863,10.67578c-0.2291,6.27784 -0.10566,12.57138 -0.10775,18.85759c0,1.57025 0.06695,3.14154 0.13809,4.71074c0.18412,4.06109 0.52934,8.12113 0.53667,12.18221c0.00523,2.92499 0.14751,5.84579 0.11089,8.76868c-0.02929,2.40611 -0.01151,4.62077 -0.06486,7.22878c-0.0952,1.75018 0.29187,2.30986 1.20828,2.64358c1.29197,0.47076 2.54838,0.64651 3.87697,0.69149c3.2179,0.11089 6.41384,0.73229 9.20492,0.47808c1.0953,0 1.75332,0.01465 2.41029,-0.00314c6.49439,-0.17157 12.63205,-1.71566 18.13785,-5.63656c2.64776,-1.88513 5.2338,-3.89789 6.90761,-6.89715c2.54524,-4.56323 2.41238,-9.53445 1.49178,-14.53183zM209.29427,254.48153c-1.84642,8.32199 -11.9824,13.08607 -20.91638,13.08607c-0.50842,0 -1.01161,-0.01569 -1.51062,-0.04603c-1.12564,-0.07114 -2.10273,-0.11403 -2.94905,-0.15274c-2.96683,-0.13286 -4.45653,-0.20086 -5.29657,-1.12355c-0.82854,-0.91327 -0.75531,-2.3402 -0.6099,-5.18359c0.03975,-0.78669 0.08578,-1.6895 0.12135,-2.72517c0.03975,-1.16121 0.02406,-2.93545 0.01151,-4.50151c-0.00523,-0.62559 -0.01046,-1.21142 -0.01151,-1.70415c-0.00209,-1.07019 0.08264,-1.99184 0.16424,-2.8821c0.08055,-0.87352 0.15587,-1.69787 0.13286,-2.55047c-0.07637,-2.96997 -0.50423,-9.85143 -0.50842,-9.92047c0,-0.00732 0,-0.01674 -0.00105,-0.02406c-0.03034,-1.19155 -0.02406,-1.91128 -0.01569,-2.87896c0.00732,-0.74171 0.01569,-1.63092 0.00837,-3.00136c-0.00942,-1.92488 0.04917,-3.24406 0.11089,-4.6396c0.05545,-1.26164 0.11298,-2.56512 0.11926,-4.38748c0.00314,-0.87248 0.03348,-1.73135 0.06277,-2.56616c0.0544,-1.53154 0.10566,-2.98043 -0.0272,-4.26404c-0.20818,-2.01694 -0.09101,-3.91044 -0.0136,-5.16371c0.02825,-0.44984 0.05231,-0.82749 0.05545,-1.11308c0.00732,-0.7574 0.55131,-1.406 1.29197,-1.54619c3.58928,-0.67789 15.78928,-2.47829 22.05352,2.82979c5.66795,4.80175 7.60434,10.4017 5.75477,16.64397c-0.71556,2.41761 -3.70959,6.18474 -7.84599,9.03545c1.05555,0.53353 2.03368,1.16435 2.89256,1.90501c4.53185,3.91149 8.79902,8.43601 6.92645,16.87412zM185.44767,234.5914c-1.49074,0.16634 -2.23768,1.00533 -2.18223,1.71043c0.08369,1.06392 1.8255,2.14039 5.48696,1.97091c2.69902,-0.12135 5.3698,-1.03253 7.78009,-2.34334c-2.96055,-1.02103 -6.26424,-1.44785 -8.91096,-1.44785c-0.79297,0 -1.52631,0.03871 -2.17386,0.10984zM201.49116,238.62215c-0.95094,-0.82017 -2.0975,-1.50225 -3.34658,-2.05984c-2.79213,1.68637 -6.00062,2.90093 -9.33255,3.04948c-4.86661,0.21969 -6.75697,-1.59012 -6.88251,-3.2064c-0.12449,-1.59221 1.29302,-2.91557 3.37064,-3.14677c3.02855,-0.33685 8.29269,-0.00732 12.72725,1.7868c4.16256,-2.66032 7.29991,-6.36467 8.00919,-8.76032c1.70729,-5.76628 -0.03766,-10.7511 -5.33528,-15.24006c-5.964,-5.05177 -18.4883,-2.99821 -20.93834,-2.53478c-0.11821,0.02197 -0.20086,0.12135 -0.2019,0.24061c-0.00209,0.30338 -0.02615,0.70509 -0.05649,1.18422c-0.07951,1.28151 -0.1883,3.03588 0.00941,4.94298c0.14227,1.37567 0.08892,2.8685 0.03348,4.45025c-0.02929,0.82017 -0.05963,1.6644 -0.06172,2.52013c-0.00628,1.85061 -0.06486,3.16978 -0.12135,4.44292c-0.06068,1.3809 -0.11821,2.68333 -0.1088,4.57579c0.00732,1.37776 -0.00209,2.27325 -0.00837,3.02019c-0.00942,0.94884 -0.01569,1.65498 0.01465,2.81933c0.02092,0.32953 0.4331,7.02164 0.51051,9.95709c0.02302,0.93106 -0.05545,1.79412 -0.13809,2.70634c-0.08055,0.85992 -0.16111,1.74913 -0.16006,2.75656c0.00105,0.49064 0.00628,1.07333 0.01255,1.69578c0.01255,1.57966 0.02825,3.37064 -0.01255,4.55905c-0.03557,1.04509 -0.0816,1.95627 -0.12344,2.74819c-0.11717,2.31614 -0.18935,3.71377 0.26467,4.21382c0.46448,0.50947 1.93116,0.57747 4.36342,0.68626c0.85365,0.03871 1.83806,0.08264 2.97311,0.15274c11.19466,0.70823 19.63382,-5.68155 21.03354,-11.99077c1.71357,-7.72255 -2.09331,-11.77108 -6.49439,-15.56959zM187.89352,215.73801c0.11194,-1.53154 0.3107,-1.54828 2.32137,-1.40391c2.21989,0.19249 3.28067,1.09216 5.25263,2.04937c2.55152,1.23967 3.62485,3.94287 3.70749,6.48707c0.0408,1.23235 -0.67685,2.47306 -1.58489,3.23464c-1.11204,0.93106 -1.14552,0.90909 -2.2722,1.8255c-0.907,0.73752 -3.18338,1.45308 -3.99727,1.43111c-3.37796,0.00209 -3.37796,0.00209 -3.3403,-2.73459c0.02197,-3.69599 -0.35673,-7.1817 -0.08683,-10.88919zM197.03149,257.72663c-2.19792,1.12773 -3.35181,1.09112 -5.70352,1.76169c-1.25536,0.35778 -2.00648,0.47285 -2.11842,-0.86724c-0.62454,-4.39899 -0.27932,-7.98095 -0.38812,-11.85059c-0.00837,-2.52641 -0.00209,-2.15712 3.09864,-2.15399c1.41228,-0.01046 2.98253,0.36405 4.48163,0.94466c1.90396,0.73857 2.3789,1.86944 3.32042,3.59033c1.7847,3.25975 0.46239,6.95678 -2.69065,8.57515z" data-paper-data="{&quot;glyphName&quot;:&quot;B&quot;,&quot;glyphIndex&quot;:0,&quot;firstGlyphOfWord&quot;:true,&quot;word&quot;:1}" fill-rule="nonzero" fill="#e26c31"></path><path d="M230.077,243.0201c1.05659,8.98314 3.30787,17.3658 12.55882,17.88364c9.23108,0.49796 12.82245,-9.99057 14.12802,-16.30189c0.87561,-4.22951 0.87038,-15.3771 -0.00941,-23.38839c-0.64442,-5.86043 -2.74924,-13.32564 -4.46071,-18.55421c-1.92174,0.73125 -3.787,1.84433 -4.8551,2.82037c-0.89549,0.81703 -1.41542,1.86107 -1.09112,3.81106c0.84527,5.09467 1.39554,11.67275 1.51375,17.56352c0.01255,0.33685 0.00314,0.6758 0.03975,1.00847c0.33685,6.37095 0.28978,13.42816 -1.2313,20.0303c-0.38184,1.65812 -1.06287,2.97416 -2.47724,3.79537c-1.50748,0.87457 -2.6101,0.5283 -3.60916,-0.99906c-0.73752,-1.12773 -1.22293,-2.32765 -1.49701,-3.67716c-0.82226,-4.05481 -1.18213,-8.15147 -1.19364,-12.28578c-0.01674,-5.38235 -0.00209,-10.17573 0.39439,-16.13555c0.32535,-3.24196 0.5534,-5.68155 0.61303,-8.55213c0.10252,-3.64786 -0.5963,-5.28925 -3.41144,-6.50276c-0.3651,-0.15797 -1.37253,-0.6371 -2.7848,-1.15807c-0.76577,3.08923 -2.03159,8.8325 -2.62475,15.15742c-0.83272,8.88271 -0.83377,18.4088 -0.00209,25.48484zM262.69019,206.29038c-1.29721,-3.41771 -3.2587,-5.43884 -8.02593,-4.3132c-0.35882,0.06172 -0.72811,0.15064 -1.10053,0.25526c1.73344,5.29657 3.86755,12.86952 4.52243,18.83353c0.90909,8.26654 0.90386,19.39111 -0.00942,23.80789c-1.35893,6.56553 -5.07374,17.38882 -14.76616,17.38986c-0.24689,0 -0.49691,-0.00732 -0.75112,-0.02092c-11.64973,-0.65174 -13.11327,-13.09026 -13.81627,-19.06577c-0.84109,-7.16392 -0.84109,-16.79566 -0.00105,-25.76625c0.60676,-6.47765 1.91233,-12.36006 2.68752,-15.47021c-0.79611,-0.25421 -1.66963,-0.5011 -2.61533,-0.70719c-3.50141,-0.66953 -5.31854,-0.90281 -6.71199,3.22732c-0.75008,2.22408 -1.17167,4.53394 -1.58489,6.85217c-0.67999,3.82152 -1.00847,10.51886 -1.41437,14.80278c-0.55027,7.43068 -0.26049,12.84965 0.53457,19.42668c0.64651,5.32377 2.32555,10.21758 4.18558,13.83929c2.83188,5.24322 6.55507,9.19551 9.53445,10.46133c6.03409,2.83084 14.0391,2.70425 19.44342,-1.26687c3.35704,-2.46573 4.75363,-3.70331 7.20681,-7.20681c2.73459,-3.90521 4.54022,-10.08053 5.21392,-14.84462c0.49064,-3.46898 1.00742,-6.98189 1.19782,-10.49167c0.55027,-10.14121 -0.08787,-20.14747 -3.72946,-29.7426z" data-paper-data="{&quot;glyphName&quot;:&quot;U&quot;,&quot;glyphIndex&quot;:1,&quot;word&quot;:1}" fill-rule="nonzero" fill="#e26c31"></path><path d="M314.43714,253.97939c-3.02123,-1.82027 -4.28391,-2.73773 -7.48717,-5.41897c-3.29323,-2.85594 -4.58624,-3.53698 -7.15973,-7.01432c-1.01893,-1.33905 -2.08285,-2.21362 -0.60885,-2.48352c9.26978,-1.2585 16.48496,-8.43706 16.42533,-19.93197c-0.14646,-3.78491 -1.13192,-7.87738 -4.15942,-10.75634c-4.3969,-4.18139 -6.90657,-5.2338 -12.50861,-7.22878c-2.66241,-0.9478 -8.51761,-2.05042 -11.29509,-2.22199c-3.92927,-0.24584 -7.83553,0.11298 -11.72715,0.62036c-1.20201,0.15587 -3.72109,-0.03871 -3.8937,2.78585c-0.51888,2.86431 -1.00533,6.47556 -1.37357,9.14634c-0.99592,7.79473 -0.84214,16.57702 -1.07856,24.43557c-0.21236,7.08023 0.3787,15.10406 0.42787,21.20301c0.23852,4.49523 0.80866,7.80938 1.05973,11.73029c0.26572,2.36217 2.1247,2.49189 4.80489,2.86013c0.96453,0.08264 2.15712,0.05858 3.45851,-0.04812c-0.35987,-2.94591 -1.08902,-9.2656 -1.25536,-13.34761c-0.07428,-1.81086 -0.20923,-4.23474 -0.35673,-6.8846c-0.30443,-5.45872 -0.64965,-11.64659 -0.64965,-15.6606c0,-6.0184 0.33476,-15.73697 0.56282,-17.78321c0.41113,-3.6918 1.20828,-10.17469 1.93848,-12.1184c0.12344,-0.32744 0.39962,-0.57851 0.82226,-0.74694c2.48038,-0.99278 12.58812,0.50214 16.63456,2.45946l0.49691,0.23956c4.23056,2.03682 11.31288,5.44721 11.05553,12.09015c-0.24375,6.30713 -3.8686,9.04905 -7.24656,11.12353c-3.50245,2.15189 -7.18275,3.64682 -10.93941,4.44293c-4.14478,0.8798 -4.94507,1.80772 -5.05177,2.28371c-0.11194,0.49168 0.39962,1.2041 1.44157,2.00439c3.83094,2.94591 7.41813,7.07709 9.79076,9.81168l0.77832,0.89444c2.00125,2.28789 6.73291,6.87832 11.76795,9.57211c1.66649,0.8913 3.25138,1.62569 4.78396,2.33706c0.86201,0.39962 1.68427,0.78878 2.49398,1.18527c0.42787,-1.53468 0.91014,-3.65728 0.90281,-5.63865c0.04603,-1.27733 0.03452,-2.20002 -2.8549,-3.94183zM308.47732,261.21967c-5.20451,-2.78376 -10.08263,-7.51437 -12.1456,-9.87131l-0.78146,-0.89967c-2.33811,-2.69275 -5.8709,-6.76325 -9.59513,-9.62651c-1.54514,-1.18736 -2.177,-2.28789 -1.93221,-3.36436c0.42473,-1.87049 3.47316,-2.74401 6.08326,-3.29741c3.60497,-0.76472 7.14299,-2.20315 10.51468,-4.27345c3.22418,-1.98138 6.38978,-4.38644 6.61051,-10.03555c0.22178,-5.76419 -6.10837,-8.81158 -10.29813,-10.82957l-0.50005,-0.24166c-4.29751,-2.07867 -14.45651,-3.21477 -15.64073,-2.38309c-0.49482,1.38822 -1.16225,5.65016 -1.83806,11.73133c-0.22387,2.0159 -0.55445,11.65078 -0.55445,17.63466c0,3.97635 0.34418,10.14435 0.64756,15.58528c0.14751,2.65822 0.28246,5.08944 0.35673,6.90657c0.16529,4.05063 0.89549,10.35671 1.25222,13.26915c1.13819,-0.13495 2.32974,-0.32535 3.51919,-0.56177c3.18547,-0.85992 4.5988,-0.61513 4.8959,-3.29427c0.28664,-2.47201 -0.35464,-5.09676 -0.57433,-7.7644c-0.56491,-6.96201 -1.48969,-8.69859 0.74171,-6.48288c2.24605,2.89988 3.82152,5.62819 6.37513,8.19854c3.68971,3.71168 7.94433,6.49962 12.88835,8.20273c0.84946,0.29396 2.46469,0.8913 3.41981,0.4875c2.11214,-0.8934 3.02855,-2.94905 4.0705,-5.44826c-0.85992,-0.42473 -1.73867,-0.84109 -2.66345,-1.27105c-1.54932,-0.71765 -3.15095,-1.4604 -4.85196,-2.37054zM286.50121,217.97987c0.09834,-1.70938 0.17261,-3.01077 0.24898,-4.31216c0.04498,-0.78355 0.52097,-1.12773 1.406,-0.96977c3.88638,0.6894 7.41603,1.92488 9.78134,4.94716c1.95313,2.49398 1.41123,4.28496 -0.66325,6.17951c-2.66868,2.4354 -6.2224,3.03274 -9.90583,3.26916c-0.95826,0.06172 -0.97186,-0.57014 -0.94361,-1.1497c0.13181,-2.78899 -0.25421,-5.58949 0.07637,-7.96421z" data-paper-data="{&quot;glyphName&quot;:&quot;R&quot;,&quot;glyphIndex&quot;:2,&quot;word&quot;:1}" fill-rule="nonzero" fill="#e26c31"></path><path d="M356.65513,246.20244c0.15064,-2.19269 0.08578,-4.37388 -0.02092,-6.54984c-0.1632,0.00105 -0.32744,0 -0.49168,0.00105c-1.83387,0.01674 -3.64054,0.03243 -5.30598,-0.0408c-0.04708,0.93524 -0.10671,1.91024 -0.16738,2.90197c-0.1747,2.88419 -0.35568,5.86567 -0.26153,8.16297l0.02302,0.57014c0.26467,6.41279 0.36824,11.41435 -0.87561,12.61113c-0.23224,0.22387 -0.51051,0.34104 -0.80971,0.34418c-0.03557,0 -0.07114,0 -0.10775,-0.00314c-6.39501,-0.50947 -10.64545,-2.94486 -13.08503,-4.89799c-4.67098,-3.74097 -9.92571,-12.40609 -10.46656,-21.09736c-0.61408,-9.86398 3.46898,-18.1504 5.95877,-22.21253c3.06935,-5.00993 8.96536,-9.73845 14.66992,-11.7669c3.45119,-1.22816 8.11067,-1.76587 10.71867,-1.98451c-0.20295,-1.55351 -0.6214,-2.94905 -1.35683,-3.8142c-0.80343,-1.01266 -3.39575,-1.00638 -4.10607,-0.96767c-4.51615,0.24061 -10.87246,2.63835 -13.93344,4.39062c-9.30117,5.32586 -13.68655,12.07132 -16.5697,21.85371c-1.56083,5.29657 -2.17805,10.54083 -1.65917,16.92433c0.57956,7.44428 2.7461,12.62996 5.93157,17.71521c1.70729,2.72413 3.58091,5.41478 6.29876,7.30201c3.01391,2.09331 6.23495,3.82048 9.80122,4.90218c2.01694,0.61303 6.38664,1.5692 10.51468,1.18945c3.46584,-0.32012 5.38654,-1.65184 5.34574,-5.63029c-0.03243,-3.07982 -0.28873,-16.3657 -0.04498,-19.90372zM332.18713,216.69417c-2.40506,3.92614 -6.35526,11.93114 -5.76315,21.42793c0.54922,8.81995 6.15963,17.0823 9.96755,20.13282c2.28161,1.82759 6.2611,4.10502 12.27114,4.60089c0.86515,-0.9478 0.55968,-8.36069 0.42787,-11.55349l-0.02302,-0.57014c-0.09729,-2.36635 0.08683,-5.38235 0.26258,-8.29897c0.05963,-0.99278 0.12031,-1.96987 0.16738,-2.90197c-3.88429,-0.31489 -6.73291,-1.31185 -6.86472,-4.30588c-0.12344,-2.78585 1.94267,-4.2473 3.91358,-4.42514c1.88722,-0.16843 3.96066,0.79925 4.25881,2.98148c0.15587,1.14552 0.15692,2.71262 0.08997,4.49419c1.62464,0.06904 3.41458,0.05335 5.23485,0.03766c0.14437,-0.00105 0.28873,0 0.43414,-0.00209c-0.09311,-1.73553 -0.18935,-3.47002 -0.19981,-5.20869c-0.00419,-0.71974 -0.00732,-2.88628 -0.76577,-4.14373c-0.91746,-2.07553 -3.13107,-2.9208 -4.43037,-3.07877c-2.70425,-0.32744 -8.74567,-0.7574 -10.76052,0.43937c-1.83282,0.91641 -2.36845,4.62705 -2.53687,6.9798c-0.20504,2.86326 -0.47704,4.78292 -0.32639,7.66397c0.06591,1.26268 0.67476,2.06611 1.90292,2.37577c0.94047,0.23747 1.8935,0.48122 2.85594,0.57119c1.03672,0.09624 1.48237,0.5419 1.48237,1.55665c0.00105,2.53164 0.07637,5.06328 0.0544,7.59388c-0.01255,1.27419 -0.34209,1.46982 -1.53363,1.02835c-3.99413,-1.47819 -5.93785,-4.73689 -7.44114,-8.3586c-0.23015,-0.80238 -1.32231,-3.93137 -1.37776,-8.77392c0.13181,-3.71168 0.59629,-7.36164 1.69264,-11.15073c1.10262,-3.81315 3.09446,-6.78312 5.89705,-9.27292c3.96171,-3.93241 9.95814,-5.66376 12.74294,-6.25483c1.89455,-0.40067 2.53269,-1.65812 2.70216,-3.86023c0.068,-0.9185 0.07846,-1.88722 0.02825,-2.8392c-2.54733,0.21655 -7.1137,0.7438 -10.38914,1.90815c-5.43571,1.9343 -11.05135,6.4379 -13.97424,11.20722zM346.94178,232.12148c-0.09206,0.00105 -0.18307,0.00523 -0.27513,0.01465c-1.29825,0.11717 -2.78376,0.98023 -2.69379,3.0296c0.08892,2.02322 2.37995,2.76807 5.58425,3.02855c0.06486,-1.69997 0.06382,-3.18024 -0.0795,-4.23265c-0.17784,-1.30662 -1.39031,-1.8527 -2.53582,-1.84015z" data-paper-data="{&quot;glyphName&quot;:&quot;G&quot;,&quot;glyphIndex&quot;:3,&quot;word&quot;:1}" fill-rule="nonzero" fill="#e26c31"></path><path d="M380.33669,208.30942c-3.76085,0.18726 -9.67777,1.03463 -11.3338,1.27942c-0.37556,1.58594 -1.6236,7.27899 -1.43948,12.1048c0.0952,2.47829 0.02197,4.99842 -0.05649,7.66711c-0.04289,1.45831 -0.08683,2.99926 -0.10985,4.65006h18.92349c0.07009,-0.79925 0.14751,-1.59744 0.21655,-2.39669c0.2312,-2.68228 -0.45507,-3.54221 -3.27962,-4.08724c-0.45611,-0.08787 -0.92897,-0.10984 -1.39554,-0.1475c-1.78679,-0.14332 -3.58301,-0.21655 -5.35934,-0.43833c-1.91965,-0.23852 -2.06507,-0.43833 -2.14353,-2.19897c-0.0544,-1.23444 -0.05126,-2.47097 -0.07428,-3.70645c0.00523,0 0.01151,0 0.01674,0c-0.01569,-0.80029 -0.03975,-1.59954 -0.04289,-2.39983c-0.01988,-3.84767 0.4195,-4.62181 4.68354,-4.48477c2.41447,0.07741 4.5036,0.02197 6.60005,0.15901c2.88,0.1088 3.78072,-0.30233 4.10293,-2.94068c0.10775,-1.02207 0.1883,-2.05356 0.24061,-3.07877c-1.55769,-0.04812 -5.98074,-0.15901 -9.5491,0.01883zM384.41032,257.76325c-1.62778,0.11612 -3.4899,0.03871 -4.80698,-0.05126c-0.96035,-0.04917 -2.15399,-0.01883 -3.78072,-0.20086c-1.77633,-0.19772 -1.4332,-3.55999 -1.43006,-5.23694c0.00314,-2.46573 0.14646,-4.93356 0.21969,-7.3993c0.03661,-1.23548 0.01779,-1.99602 0.06382,-3.2315c0.09101,-1.11622 0.98023,-1.30034 2.1362,-1.32545c1.92384,0.03348 3.36227,0.18203 5.28192,0.35987c2.67182,0.40904 3.63426,-0.31175 3.87383,-2.77434c0.08369,-0.84946 0.15378,-1.70101 0.23119,-2.55152h-18.8147c-0.01046,2.15085 0.02511,4.49837 0.15901,7.11684c0.39858,7.83344 -0.00523,18.32301 -0.12972,21.15908c1.91547,-0.06695 7.12939,-0.21655 10.64649,0.02929c2.2722,0.16215 5.46291,0.06068 8.02802,-0.01779c1.37043,-0.04184 2.33706,-0.06695 3.04425,-0.06905c-0.01255,-1.00429 -0.08264,-2.03682 -0.23538,-3.17083c-0.59525,-2.34543 -1.31394,-2.90302 -4.48686,-2.63625zM381.07002,265.08409c-1.10995,0 -2.17596,-0.02406 -3.10178,-0.08997c-4.21173,-0.29501 -11.157,-0.00105 -11.2271,0.00105c-0.18621,0.01674 -0.37138,-0.06277 -0.50424,-0.19772c-0.13181,-0.13286 -0.204,-0.31593 -0.19353,-0.50528c0.00628,-0.12658 0.6214,-12.73143 0.16215,-21.75537c-0.14751,-2.92185 -0.1768,-5.49743 -0.15378,-7.84809c0,-0.00209 -0.00209,-0.00523 -0.00209,-0.00732c0,-0.00419 0.00209,-0.00628 0.00209,-0.00942c0.01779,-1.91861 0.068,-3.68866 0.11612,-5.35201c0.07741,-2.64358 0.15064,-5.14174 0.05649,-7.57505c-0.22387,-5.84161 1.51062,-12.63414 1.58489,-12.92078c0.06695,-0.26049 0.28246,-0.45507 0.54817,-0.49482c0.07428,-0.01151 7.45997,-1.1361 11.91231,-1.35997c3.61439,-0.18098 8.08033,-0.07009 9.65894,-0.01988c0.01569,-0.95407 0.00418,-1.89978 -0.07114,-2.81514c-0.19667,-2.38309 -1.26896,-2.70844 -3.75561,-2.96055c-3.7598,-0.1224 -7.63363,-0.17366 -10.87873,-0.18621c-1.09216,0.02929 -6.36258,-0.11089 -8.64001,0.01151c-3.43968,0.15378 -4.30588,0.45925 -4.84359,2.72517c-1.25745,5.29866 -0.68626,12.20837 -0.96872,17.5698c-0.28664,5.43884 -0.30756,10.88815 -0.4875,16.33222c-0.14541,4.42828 -0.46448,8.85447 -0.50842,13.28379c-0.05754,5.73804 0.07741,11.47712 0.13914,17.2162c0.03034,2.80259 0.43519,3.19489 3.47211,3.40098c0.54503,0.03661 1.09216,0.02197 1.63929,0.03452c3.65833,0.09101 5.96505,0.17889 9.62338,0.24166c3.41981,0.05858 7.33548,-0.00314 10.57431,-0.28246c2.35171,-0.08683 3.00135,-0.11403 3.48467,-2.29312c0.20609,-1.56815 0.35778,-2.94591 0.41008,-4.32053c-0.81703,0.00523 -1.93848,0.0408 -2.98671,0.07323c-1.56815,0.04917 -3.3675,0.10357 -5.06119,0.10357z" data-paper-data="{&quot;glyphName&quot;:&quot;E&quot;,&quot;glyphIndex&quot;:4,&quot;word&quot;:1}" fill-rule="nonzero" fill="#e26c31"></path><path d="M437.38545,253.97939c-3.02123,-1.82027 -4.28391,-2.73773 -7.48717,-5.41897c-3.29323,-2.85594 -4.58624,-3.53698 -7.15973,-7.01432c-1.01893,-1.33905 -2.08285,-2.21362 -0.60885,-2.48352c9.26978,-1.2585 16.48496,-8.43706 16.42533,-19.93197c-0.14646,-3.78491 -1.13192,-7.87738 -4.15942,-10.75634c-4.3969,-4.18139 -6.90657,-5.2338 -12.50861,-7.22878c-2.66241,-0.9478 -8.51761,-2.05042 -11.29509,-2.22199c-3.92927,-0.24584 -7.83553,0.11298 -11.72715,0.62036c-1.20201,0.15587 -3.72109,-0.03871 -3.8937,2.78585c-0.51888,2.86431 -1.00533,6.47556 -1.37357,9.14634c-0.99592,7.79473 -0.84214,16.57702 -1.07856,24.43557c-0.21236,7.08023 0.3787,15.10406 0.42787,21.20301c0.23852,4.49523 0.80866,7.80938 1.05973,11.73029c0.26572,2.36217 2.1247,2.49189 4.80489,2.86013c0.96453,0.08264 2.15712,0.05858 3.45851,-0.04812c-0.35987,-2.94591 -1.08902,-9.2656 -1.25536,-13.34761c-0.07428,-1.81086 -0.20923,-4.23474 -0.35673,-6.8846c-0.30443,-5.45872 -0.64965,-11.64659 -0.64965,-15.6606c0,-6.0184 0.33476,-15.73697 0.56282,-17.78321c0.41113,-3.6918 1.20828,-10.17469 1.93848,-12.1184c0.12344,-0.32744 0.39962,-0.57851 0.82226,-0.74694c2.48038,-0.99278 12.58812,0.50214 16.63456,2.45946l0.49691,0.23956c4.23056,2.03682 11.31288,5.44721 11.05553,12.09015c-0.24375,6.30713 -3.8686,9.04905 -7.24656,11.12353c-3.50245,2.15189 -7.18275,3.64682 -10.93941,4.44293c-4.14478,0.8798 -4.94507,1.80772 -5.05177,2.28371c-0.11194,0.49168 0.39962,1.2041 1.44157,2.00439c3.83094,2.94591 7.41813,7.07709 9.79076,9.81168l0.77832,0.89444c2.00125,2.28789 6.73291,6.87832 11.76795,9.57211c1.66649,0.8913 3.25138,1.62569 4.78396,2.33706c0.86201,0.39962 1.68427,0.78878 2.49398,1.18527c0.42787,-1.53468 0.91014,-3.65728 0.90281,-5.63865c0.04603,-1.27733 0.03452,-2.20002 -2.8549,-3.94183zM431.42563,261.21967c-5.20451,-2.78376 -10.08263,-7.51437 -12.1456,-9.87131l-0.78146,-0.89967c-2.33811,-2.69275 -5.8709,-6.76325 -9.59513,-9.62651c-1.54514,-1.18736 -2.177,-2.28789 -1.93221,-3.36436c0.42473,-1.87049 3.47316,-2.74401 6.08326,-3.29741c3.60497,-0.76472 7.14299,-2.20315 10.51468,-4.27345c3.22418,-1.98138 6.38978,-4.38644 6.61051,-10.03555c0.22178,-5.76419 -6.10837,-8.81158 -10.29813,-10.82957l-0.50005,-0.24166c-4.29751,-2.07867 -14.45651,-3.21477 -15.64073,-2.38309c-0.49482,1.38822 -1.16225,5.65016 -1.83806,11.73133c-0.22387,2.0159 -0.55445,11.65078 -0.55445,17.63466c0,3.97635 0.34418,10.14435 0.64756,15.58528c0.14751,2.65822 0.28246,5.08944 0.35673,6.90657c0.16529,4.05063 0.89549,10.35671 1.25222,13.26915c1.13819,-0.13495 2.32974,-0.32535 3.51919,-0.56177c3.18547,-0.85992 4.5988,-0.61513 4.8959,-3.29427c0.28664,-2.47201 -0.35464,-5.09676 -0.57433,-7.7644c-0.56491,-6.96201 -1.48969,-8.69859 0.74171,-6.48288c2.24605,2.89988 3.82152,5.62819 6.37513,8.19854c3.68971,3.71168 7.94433,6.49962 12.88835,8.20273c0.84946,0.29396 2.46469,0.8913 3.41981,0.4875c2.11214,-0.8934 3.02855,-2.94905 4.0705,-5.44826c-0.85992,-0.42473 -1.73867,-0.84109 -2.66345,-1.27105c-1.54932,-0.71765 -3.15095,-1.4604 -4.85196,-2.37054zM409.44952,217.97987c0.09834,-1.70938 0.17261,-3.01077 0.24898,-4.31216c0.04498,-0.78355 0.52097,-1.12773 1.406,-0.96977c3.88638,0.6894 7.41603,1.92488 9.78134,4.94716c1.95313,2.49398 1.41123,4.28496 -0.66325,6.17951c-2.66868,2.4354 -6.2224,3.03274 -9.90583,3.26916c-0.95826,0.06172 -0.97186,-0.57014 -0.94361,-1.1497c0.13181,-2.78899 -0.25421,-5.58949 0.07637,-7.96421z" data-paper-data="{&quot;glyphName&quot;:&quot;R&quot;,&quot;glyphIndex&quot;:5,&quot;word&quot;:1}" fill-rule="nonzero" fill="#e26c31"></path><path d="M460.60164,229.53411c0.48672,0.83849 0.92615,1.59856 1.29753,2.27328c4.29973,-5.52345 8.42184,-11.90269 10.63514,-16.48269c1.74273,-3.60541 4.39546,-10.65014 5.65493,-14.0687c-1.72197,-0.14417 -3.47738,-0.1384 -5.51768,-0.0669c-2.36208,0.08304 -3.01719,0.55477 -4.02177,2.84649c-0.93653,1.85461 -2.27673,5.53498 -2.70348,6.91901c-0.67702,2.43129 -1.61932,4.74262 -2.77499,7.17737c-0.16147,0.3437 -0.38868,0.82119 -0.83619,0.0173c-0.43597,-0.77852 -0.6701,-1.50052 -0.93884,-2.20638c-1.44978,-3.81878 -2.65158,-7.95012 -3.80955,-11.85309c-0.74507,-2.51202 -1.17297,-3.51429 -4.32626,-3.482c-1.54896,-0.01384 -2.95952,0.02768 -4.31126,0.14071c0.88578,3.02527 2.32863,7.8913 3.37243,11.0838c2.557,7.8244 6.00094,13.76883 8.27998,17.70179zM483.48203,202.21444c-1.39095,-0.38407 -2.66426,-0.64012 -3.91797,-0.80851c-1.21449,3.30207 -3.99986,10.73318 -5.82217,14.50121c-2.33671,4.83604 -6.75408,11.62357 -11.28218,17.35693c-0.01961,1.66545 -0.16032,12.38479 -0.35754,16.4873c-0.06574,1.40133 -0.22952,3.87068 -0.41982,6.72756c-0.32986,4.95715 -0.7543,11.36176 -0.91692,15.89332c0.75545,0.04037 1.51206,0.07958 2.26751,0.14071c2.86495,0.23067 4.94792,-0.48441 5.4554,-3.37935c0.71854,-4.43813 1.39557,-12.53819 1.62624,-17.23122c0.10034,-4.8568 0.0692,-8.6975 0.40483,-12.05032c0.17531,-1.55704 0.47749,-3.65154 1.09223,-4.54655c1.05071,-1.87998 3.15675,-5.64224 3.96756,-7.30308c2.84996,-5.25125 3.65039,-7.61103 5.81063,-12.68236c1.52013,-3.57196 2.57199,-5.99748 3.4647,-9.38605c0.49941,-1.86498 -0.36792,-3.44163 -1.3725,-3.71959zM459.44252,230.20652c-2.30788,-3.98256 -5.79333,-9.99964 -8.39532,-17.96129c-1.07493,-3.28939 -2.572,-8.34457 -3.45086,-11.35369c-1.49822,0.18915 -2.95607,0.4821 -4.48196,0.92615c-1.94341,0.56169 -2.52932,1.73696 -2.40015,3.78072c0.10726,1.66545 0.66318,3.40242 1.17412,4.97329c1.1326,3.48777 2.37362,6.69065 3.80609,10.04001c1.20526,2.81882 1.86614,4.36086 3.40934,7.25118c1.26408,2.46704 2.37477,5.27778 3.62386,7.44379c0.44174,0.76929 0.74507,1.87652 0.72431,2.75423c-0.03114,1.35751 0.07036,3.52237 -0.11072,4.86142c-0.23875,7.01359 -0.67241,9.0931 -0.6701,16.70528c-0.10957,2.25021 -0.00577,6.32965 0.05767,7.95819c0.11303,2.96299 0.61243,4.27666 4.52579,4.5823c0.72431,0.0519 1.44747,0.08765 2.16947,0.12456c0.16493,-4.55693 0.58821,-10.94886 0.91807,-15.90139c0.18915,-2.85111 0.35293,-5.31238 0.42098,-6.70449c0.19607,-4.12211 0.33678,-15.00869 0.35524,-16.49191c-0.42098,-0.81889 -1.00227,-1.82462 -1.67583,-2.98836z" data-paper-data="{&quot;glyphName&quot;:&quot;Y&quot;,&quot;glyphIndex&quot;:6,&quot;lastGlyphOfWord&quot;:true,&quot;word&quot;:1}" fill-rule="nonzero" fill="#e26c31"></path><g data-paper-data="{&quot;fillRule&quot;:&quot;evenodd&quot;,&quot;fillRuleOriginal&quot;:&quot;evenodd&quot;,&quot;isIcon&quot;:true,&quot;iconStyle&quot;:&quot;icon-in-text&quot;,&quot;selectedEffects&quot;:{&quot;container&quot;:&quot;&quot;,&quot;transformation&quot;:&quot;rotate0;translate50&quot;,&quot;pattern&quot;:&quot;&quot;},&quot;bounds&quot;:{&quot;x&quot;:64.99999999999999,&quot;y&quot;:199.9720342859325,&quot;width&quot;:86.60422893829279,&quot;height&quot;:72.17018789510306},&quot;iconType&quot;:&quot;icon&quot;,&quot;rawIconId&quot;:&quot;583462&quot;,&quot;combineTerms&quot;:&quot;burger&quot;,&quot;suitableAsStandaloneIcon&quot;:true}" fill-rule="evenodd"><path d="M108.30211,199.97203c18.04255,0 43.30211,7.21702 43.30211,32.47659h-86.60423c0,-25.25957 25.25957,-32.47659 43.30211,-32.47659zM144.38721,243.27415c1.9955,0 3.60851,-1.613 3.60851,-3.60851c0,-1.9955 -1.613,-3.60851 -3.60851,-3.60851h-72.17019c-1.9919,0 -3.60851,1.613 -3.60851,3.60851c0,1.9955 1.61661,3.60851 3.60851,3.60851zM86.65106,246.88266h61.34466c1.9955,0 3.60851,1.613 3.60851,3.60851v3.60851c0,1.9955 -1.613,3.60851 -3.60851,3.60851h-79.38721c-1.9919,0 -3.60851,-1.613 -3.60851,-3.60851v-3.60851c0,-1.9955 1.61661,-3.60851 3.60851,-3.60851h3.60851l7.21702,7.21702zM137.17019,272.14222c5.9793,0 10.82553,-4.84984 10.82553,-10.82553h-79.38721c0,5.97569 4.84984,10.82553 10.82553,10.82553z" data-paper-data="{&quot;isPathIcon&quot;:true}" fill="#e26c31"></path></g></g></g></g></svg>