<svg xmlns:mydata="http://www.w3.org/2000/svg" mydata:contrastcolor="ffffff" mydata:template="Contrast" mydata:presentation="2.5" mydata:layouttype="undefined" mydata:specialfontid="undefined" mydata:id1="616" mydata:id2="372" mydata:companyname="burger" mydata:companytagline="" version="1.1" xmlns="http://www.w3.org/2000/svg" xmlns:xlink="http://www.w3.org/1999/xlink" viewBox="200 80 150 250"><g fill="#da7741" fill-rule="none" stroke="none" stroke-width="1" stroke-linecap="butt" stroke-linejoin="miter" stroke-miterlimit="10" stroke-dasharray="" stroke-dashoffset="0" font-family="none" font-weight="none" font-size="none" text-anchor="none" style="mix-blend-mode: normal"><g data-paper-data="{&quot;isGlobalGroup&quot;:true,&quot;bounds&quot;:{&quot;x&quot;:175.8109879096183,&quot;y&quot;:115,&quot;width&quot;:198.37802418076336,&quot;height&quot;:240}}"><g data-paper-data="{&quot;isPrimaryText&quot;:true}" fill-rule="nonzero"><path d="M199.30428,331.50671c3.50646,-2.89283 5.96098,-8.06486 5.96098,-17.26932c0,-22.0907 -14.72714,-20.24981 -22.0907,-20.24981c-3.24348,0 -6.48695,0.70129 -7.27591,0.87662h-0.08766v58.9962c0,0 3.68178,0.96428 7.36357,0.96428c14.72714,0 22.0907,-2.80517 22.0907,-12.97391c0,-4.90905 -1.84089,-8.24018 -5.96098,-10.34406zM197.90169,314.23739c0,12.88624 -7.36357,14.28883 -14.72714,14.28883v-27.70104c7.36357,0 14.72714,-0.43831 14.72714,13.41221zM183.17456,347.89942v-12.44794c13.85052,0 14.72714,3.68178 14.72714,6.39929c0,2.80517 -0.87662,6.04865 -14.72714,6.04865z" data-paper-data="{&quot;glyphName&quot;:&quot;b&quot;,&quot;glyphIndex&quot;:0,&quot;firstGlyphOfWord&quot;:true,&quot;word&quot;:1}" fill="#e26c31"></path><path d="M208.07043,294.8642c0,0 0,17.88295 0,29.10363c0,11.30834 0,31.03218 15.07778,31.03218c15.07778,0 15.07778,-19.72384 15.07778,-31.03218c0,-11.22067 0,-29.10363 0,-29.10363h-7.53889c0,0 0,17.88295 0,29.10363c0,11.30834 0,24.54523 -7.53889,24.54523c-7.45123,0 -7.45123,-13.23689 -7.45123,-24.54523c0,-11.22067 0,-29.10363 0,-29.10363z" data-paper-data="{&quot;glyphName&quot;:&quot;u&quot;,&quot;glyphIndex&quot;:1,&quot;word&quot;:1}" fill="#e26c31"></path><path d="M266.19002,346.93514c-3.06815,0 -3.59412,-7.27591 -5.78566,-9.99341c6.22397,-2.10388 13.14923,-7.36357 13.14923,-20.86344c0,-22.17837 -14.72714,-22.17837 -22.0907,-22.17837c-3.68178,0 -7.45123,0.96428 -7.45123,0.96428v0v58.9962h7.45123v-15.69141c7.36357,0 3.68178,16.21738 14.72714,16.21738c4.5584,0 7.36357,-4.64606 7.36357,-4.64606l-4.5584,-4.64606c0,0 -0.96428,1.84089 -2.80517,1.84089zM251.46288,301.26349c7.36357,0 14.72714,0.96428 14.72714,14.8148c0,12.88624 -7.36357,14.72714 -14.72714,14.72714z" data-paper-data="{&quot;glyphName&quot;:&quot;r&quot;,&quot;glyphIndex&quot;:2,&quot;word&quot;:1}" fill="#e26c31"></path><path d="M291.26121,331.7697v7.36357h7.45123c0,5.43501 -3.50646,9.20446 -7.45123,9.20446c-6.48695,0 -7.36357,-12.88624 -7.36357,-24.01926c0,-11.04535 0.87662,-23.9316 7.36357,-23.9316c6.48695,0 7.36357,12.88624 7.36357,23.9316h7.36357c0,-15.60375 -2.71751,-30.41855 -14.72714,-30.41855c-12.00963,0 -14.8148,14.8148 -14.8148,30.41855c0,15.77907 2.80517,30.50621 14.8148,30.50621c8.32784,0 14.72714,-4.64606 14.72714,-23.05498z" data-paper-data="{&quot;glyphName&quot;:&quot;g&quot;,&quot;glyphIndex&quot;:3,&quot;word&quot;:1}" fill="#e26c31"></path><path d="M339.56271,301.78946v-6.92526h-22.0907h-7.45123v6.92526v26.73676v6.92526v11.48366v6.92526h7.45123h22.0907v-6.92526h-22.0907v-11.48366h21.38941v-6.92526h-21.38941v-26.73676z" data-paper-data="{&quot;glyphName&quot;:&quot;e&quot;,&quot;glyphIndex&quot;:4,&quot;word&quot;:1}" fill="#e26c31"></path><path d="M366.82544,346.93514c-3.06815,0 -3.59412,-7.27591 -5.78566,-9.99341c6.22397,-2.10388 13.14923,-7.36357 13.14923,-20.86344c0,-22.17837 -14.72714,-22.17837 -22.0907,-22.17837c-3.68178,0 -7.45123,0.96428 -7.45123,0.96428v0v58.9962h7.45123v-15.69141c7.36357,0 3.68178,16.21738 14.72714,16.21738c4.5584,0 7.36357,-4.64606 7.36357,-4.64606l-4.5584,-4.64606c0,0 -0.96428,1.84089 -2.80517,1.84089zM352.09831,301.26349c7.36357,0 14.72714,0.96428 14.72714,14.8148c0,12.88624 -7.36357,14.72714 -14.72714,14.72714z" data-paper-data="{&quot;glyphName&quot;:&quot;r&quot;,&quot;glyphIndex&quot;:5,&quot;lastGlyphOfWord&quot;:true,&quot;word&quot;:1}" fill="#e26c31"></path></g><g data-paper-data="{&quot;fillRule&quot;:&quot;evenodd&quot;,&quot;fillRuleOriginal&quot;:&quot;evenodd&quot;,&quot;isIcon&quot;:true,&quot;iconStyle&quot;:&quot;standalone&quot;,&quot;selectedEffects&quot;:{&quot;container&quot;:&quot;&quot;,&quot;transformation&quot;:&quot;rotate0;translate50&quot;,&quot;pattern&quot;:&quot;&quot;},&quot;bounds&quot;:{&quot;x&quot;:175.8109879096183,&quot;y&quot;:115,&quot;width&quot;:198.37802418076336,&quot;height&quot;:165.31501353803532},&quot;iconType&quot;:&quot;icon&quot;,&quot;rawIconId&quot;:&quot;583462&quot;,&quot;combineTerms&quot;:&quot;burger&quot;,&quot;suitableAsStandaloneIcon&quot;:true}" fill-rule="evenodd"><path d="M275,115c41.32876,0 99.18901,16.53151 99.18901,74.39176h-198.37802c0,-57.86025 57.86025,-74.39176 99.18901,-74.39176zM357.65751,214.18901c4.57096,0 8.26575,-3.69479 8.26575,-8.26575c0,-4.57096 -3.69479,-8.26575 -8.26575,-8.26575h-165.31502c-4.56269,0 -8.26575,3.69479 -8.26575,8.26575c0,4.57096 3.70305,8.26575 8.26575,8.26575zM225.40549,222.45476h140.51777c4.57096,0 8.26575,3.69479 8.26575,8.26575v8.26575c0,4.57096 -3.69479,8.26575 -8.26575,8.26575h-181.84652c-4.56269,0 -8.26575,-3.69479 -8.26575,-8.26575v-8.26575c0,-4.57096 3.70305,-8.26575 8.26575,-8.26575h8.26575l16.53151,16.53151zM341.12601,280.31501c13.69635,0 24.79725,-11.10917 24.79725,-24.79725h-181.84652c0,13.68808 11.10917,24.79725 24.79725,24.79725z" data-paper-data="{&quot;isPathIcon&quot;:true}" fill="#e26c31"></path><path d="M371.04051,300.72999l-6.64531,29.58744l-6.64531,-29.58744h-6.64531l10.04707,39.95095v13.29061h6.5662v-13.29061l10.04707,-39.95095z" data-paper-data="{&quot;glyphName&quot;:&quot;y&quot;,&quot;glyphIndex&quot;:6,&quot;lastGlyphOfWord&quot;:true,&quot;word&quot;:1}" fill="#e26c31"></path></g></g></g></svg>