<svg xmlns:mydata="http://www.w3.org/2000/svg" mydata:contrastcolor="ffffff" mydata:template="Contrast" mydata:presentation="2.5" mydata:layouttype="undefined" mydata:specialfontid="undefined" mydata:id1="616" mydata:id2="372" mydata:companyname="Burgery" mydata:companytagline="" version="1.1" xmlns="http://www.w3.org/2000/svg" xmlns:xlink="http://www.w3.org/1999/xlink" viewBox="125 130 300 220" width="200" height="100"><g fill="#da7741" fill-rule="none" stroke="none" stroke-width="1" stroke-linecap="butt" stroke-linejoin="miter" stroke-miterlimit="10" stroke-dasharray="" stroke-dashoffset="0" font-family="none" font-weight="none" font-size="none" text-anchor="none" style="mix-blend-mode: normal"><g data-paper-data="{&quot;isGlobalGroup&quot;:true,&quot;bounds&quot;:{&quot;x&quot;:64.99999999999999,&quot;y&quot;:194.37416772744905,&quot;width&quot;:420,&quot;height&quot;:81.2516645451019}}"><g data-paper-data="{&quot;isPrimaryText&quot;:true}"><path d="M213.38396,244.38416c4.66294,-3.84692 7.92699,-10.72475 7.92699,-22.96496c0,-29.3765 -19.58433,-26.92846 -29.3765,-26.92846c-4.31322,0 -8.62643,0.93259 -9.67559,1.16573h-0.11657v78.4539c0,0 4.89608,1.28231 9.79217,1.28231c19.58433,0 29.3765,-3.73035 29.3765,-17.25286c0,-6.52811 -2.44804,-10.9579 -7.92699,-13.75566zM211.51879,221.4192c0,17.13629 -9.79217,19.00147 -19.58433,19.00147v-36.8372c9.79217,0 19.58433,-0.58287 19.58433,17.83573zM191.93446,266.18339v-16.55342c18.4186,0 19.58433,4.89608 19.58433,8.50986c0,3.73035 -1.16573,8.04357 -19.58433,8.04357z" data-paper-data="{&quot;glyphName&quot;:&quot;b&quot;,&quot;glyphIndex&quot;:0,&quot;firstGlyphOfWord&quot;:true,&quot;word&quot;:1}" fill-rule="nonzero" fill="#e25b00"></path><path d="M225.0413,195.65648c0,0 0,23.78097 0,38.70237c0,15.03797 0,41.26699 20.05063,41.26699c20.05063,0 20.05063,-26.22902 20.05063,-41.26699c0,-14.9214 0,-38.70237 0,-38.70237h-10.02531c0,0 0,23.78097 0,38.70237c0,15.03797 0,32.64055 -10.02531,32.64055c-9.90874,0 -9.90874,-17.60258 -9.90874,-32.64055c0,-14.9214 0,-38.70237 0,-38.70237z" data-paper-data="{&quot;glyphName&quot;:&quot;u&quot;,&quot;glyphIndex&quot;:1,&quot;word&quot;:1}" fill-rule="nonzero" fill="#e25b00"></path><path d="M302.32947,264.90108c-4.08007,0 -4.77951,-9.67559 -7.69384,-13.28937c8.27671,-2.79776 17.48601,-9.79217 17.48601,-27.74447c0,-29.49307 -19.58433,-29.49307 -29.3765,-29.49307c-4.89608,0 -9.90874,1.28231 -9.90874,1.28231v0v78.4539h9.90874v-20.86664c9.79217,0 4.89608,21.56608 19.58433,21.56608c6.06182,0 9.79217,-6.17839 9.79217,-6.17839l-6.06182,-6.17839c0,0 -1.28231,2.44804 -3.73035,2.44804zM282.74514,204.16633c9.79217,0 19.58433,1.28231 19.58433,19.70091c0,17.13629 -9.79217,19.58433 -19.58433,19.58433z" data-paper-data="{&quot;glyphName&quot;:&quot;r&quot;,&quot;glyphIndex&quot;:2,&quot;word&quot;:1}" fill-rule="nonzero" fill="#e25b00"></path><path d="M335.66947,244.73388v9.79217h9.90874c0,7.22755 -4.66294,12.24021 -9.90874,12.24021c-8.62643,0 -9.79217,-17.13629 -9.79217,-31.94111c0,-14.68825 1.16573,-31.82454 9.79217,-31.82454c8.62643,0 9.79217,17.13629 9.79217,31.82454h9.79217c0,-20.75007 -3.61378,-40.45097 -19.58433,-40.45097c-15.97056,0 -19.70091,19.70091 -19.70091,40.45097c0,20.98321 3.73035,40.56755 19.70091,40.56755c11.07447,0 19.58433,-6.17839 19.58433,-30.65881z" data-paper-data="{&quot;glyphName&quot;:&quot;g&quot;,&quot;glyphIndex&quot;:3,&quot;word&quot;:1}" fill-rule="nonzero" fill="#e25b00"></path><path d="M399.90141,204.86577v-9.2093h-29.3765h-9.90874v9.2093v35.55489v9.2093v15.27112v9.2093h9.90874h29.3765v-9.2093h-29.3765v-15.27112h28.44391v-9.2093h-28.44391v-35.55489z" data-paper-data="{&quot;glyphName&quot;:&quot;e&quot;,&quot;glyphIndex&quot;:4,&quot;word&quot;:1}" fill-rule="nonzero" fill="#e25b00"></path><path d="M436.15574,264.90108c-4.08007,0 -4.77951,-9.67559 -7.69384,-13.28937c8.27671,-2.79776 17.48601,-9.79217 17.48601,-27.74447c0,-29.49307 -19.58433,-29.49307 -29.3765,-29.49307c-4.89608,0 -9.90874,1.28231 -9.90874,1.28231v0v78.4539h9.90874v-20.86664c9.79217,0 4.89608,21.56608 19.58433,21.56608c6.06182,0 9.79217,-6.17839 9.79217,-6.17839l-6.06182,-6.17839c0,0 -1.28231,2.44804 -3.73035,2.44804zM416.57141,204.16633c9.79217,0 19.58433,1.28231 19.58433,19.70091c0,17.13629 -9.79217,19.58433 -19.58433,19.58433z" data-paper-data="{&quot;glyphName&quot;:&quot;r&quot;,&quot;glyphIndex&quot;:5,&quot;word&quot;:1}" fill-rule="nonzero" fill="#e25b00"></path><path d="M475.09126,195.65648l-9.79217,43.59845l-9.79217,-43.59845h-9.79217l14.80482,58.86957v19.58433h9.67559v-19.58433l14.80482,-58.86957z" data-paper-data="{&quot;glyphName&quot;:&quot;y&quot;,&quot;glyphIndex&quot;:6,&quot;lastGlyphOfWord&quot;:true,&quot;word&quot;:1}" fill-rule="nonzero" fill="#e25b00"></path><g data-paper-data="{&quot;fillRule&quot;:&quot;evenodd&quot;,&quot;fillRuleOriginal&quot;:&quot;evenodd&quot;,&quot;isIcon&quot;:true,&quot;iconStyle&quot;:&quot;icon-in-text&quot;,&quot;selectedEffects&quot;:{&quot;container&quot;:&quot;&quot;,&quot;transformation&quot;:&quot;rotate0;translate50&quot;,&quot;pattern&quot;:&quot;&quot;},&quot;bounds&quot;:{&quot;x&quot;:64.99999999999999,&quot;y&quot;:194.44078110276783,&quot;width&quot;:97.14228911309227,&quot;height&quot;:80.95190435616726},&quot;iconType&quot;:&quot;icon&quot;,&quot;rawIconId&quot;:&quot;583462&quot;,&quot;combineTerms&quot;:&quot;burger&quot;,&quot;suitableAsStandaloneIcon&quot;:true}" fill-rule="evenodd"><path d="M113.57114,194.44078c20.23798,0 48.57114,8.09519 48.57114,36.42836h-97.14229c0,-28.33317 28.33317,-36.42836 48.57114,-36.42836zM154.0471,243.01193c2.23832,0 4.04759,-1.80928 4.04759,-4.04759c0,-2.23832 -1.80928,-4.04759 -4.04759,-4.04759h-80.95191c-2.23427,0 -4.04759,1.80928 -4.04759,4.04759c0,2.23832 1.81332,4.04759 4.04759,4.04759zM89.28557,247.05952h68.80912c2.23832,0 4.04759,1.80928 4.04759,4.04759v4.04759c0,2.23832 -1.80928,4.04759 -4.04759,4.04759h-89.0471c-2.23427,0 -4.04759,-1.80928 -4.04759,-4.04759v-4.04759c0,-2.23832 1.81332,-4.04759 4.04759,-4.04759h4.04759l8.09519,8.09519zM145.95191,275.39269c6.70686,0 12.14279,-5.43997 12.14279,-12.14279h-89.0471c0,6.70282 5.43997,12.14279 12.14279,12.14279z" data-paper-data="{&quot;isPathIcon&quot;:true}" fill="#e25b00"></path></g></g></g></g></svg>